<?xml version="1.0" encoding="UTF-8"?>
<svg width="256" height="256" viewBox="0 0 256 256" xmlns="http://www.w3.org/2000/svg">
  <defs>
    <linearGradient id="aiGradient" x1="0%" y1="0%" x2="100%" y2="100%">
      <stop offset="0%" stop-color="#29b1ff"/>
      <stop offset="50%" stop-color="#1f7de2"/>
      <stop offset="100%" stop-color="#0b3fb1"/>
    </linearGradient>
    <linearGradient id="aiGradientSecondary" x1="0%" y1="0%" x2="100%" y2="100%">
      <stop offset="0%" stop-color="#4dd4ff"/>
      <stop offset="100%" stop-color="#0f61d4"/>
    </linearGradient>
    <filter id="shadow" x="-20%" y="-20%" width="140%" height="140%">
      <feDropShadow dx="0" dy="6" stdDeviation="8" flood-color="#0b3fb1" flood-opacity="0.25"/>
    </filter>
  </defs>
  <rect width="256" height="256" rx="64" fill="#f5f8ff"/>
  <g filter="url(#shadow)">
    <path
      d="M64 158c0-26.5 36-84 64-106s56-4 63 20c6 20-8 37-22 48l-41 31c-8 6-10 14-4 18 18 12 45-11 56-2 7 5 8 19-3 30-21 22-65 27-90 6-14-12-23-27-23-45Z"
      fill="url(#aiGradient)"/>
    <path
      d="M94 58c19-4 37 6 44 25 8 22 4 50-9 66-6 8-15 13-24 16-27 8-56-13-57-39-.8-25 19-60 46-68Z"
      fill="url(#aiGradientSecondary)" opacity="0.95"/>
    <circle cx="186" cy="90" r="22" fill="url(#aiGradient)"/>
  </g>
</svg>

